# xmcd
#
# Track frame offsets:
#	150
#	14315
#	27700
#	41755
#	55420
#	68945
#	82497
#	96580
#	110328
#	124911
#	139144
#	151710
#	164082
#	176649
#	190107
#	201810
#	213401
#	225801
#	240402
#	253749
#
# Disc length: 3555 seconds
#
# Revision: 1
# Processed by: cddbd v1.5.1PL2 Copyright (c) Steve Scherf et al.
# Submitted via: EasyCDDAExtractor 6.2.0.3
#
DISCID=230de114
DTITLE=Various Artist - 10 Blues Legends CD 4
DYEAR=1900
DGENRE=
TTITLE0=John Lee Hooker - Boogie Chillen
TTITLE1=John Lee Hooker - She Was In Chicago
TTITLE2=John Lee Hooker - Talking Boogie
TTITLE3=John Lee Hooker - Hobo Blues
TTITLE4=John Lee Hooker - Drifting From Door To Door
TTITLE5=John Lee Hooker - Crawling King Snake
TTITLE6=John Lee Hooker - Alberta
TTITLE7=John Lee Hooker - Black Cat Blues
TTITLE8=John Lee Hooker - Forgive Me
TTITLE9=John Lee Hooker - Sally Mae
TTITLE10=Memphis Minnie - Bumble Bee
TTITLE11=Memphis Minnie - Nothing Is Rambling
TTITLE12=Memphis Minnie - Me And My Chauffeur
TTITLE13=Memphis Minnie - I Got to Make A Change Blues
TTITLE14=Memphis Minnie - You Got To Get Out Of Here
TTITLE15=Memphis Minnie - When My Man Comes Home
TTITLE16=Memphis Minnie - Dirty Mother For You
TTITLE17=Memphis Minnie - If You See My Rooster (Please Run Him Home)
TTITLE18=Memphis Minnie - Good Morning
TTITLE19=Memphis Minnie - I've Been Treated Wrong
EXTD=
EXTT0=
EXTT1=
EXTT2=
EXTT3=
EXTT4=
EXTT5=
EXTT6=
EXTT7=
EXTT8=
EXTT9=
EXTT10=
EXTT11=
EXTT12=
EXTT13=
EXTT14=
EXTT15=
EXTT16=
EXTT17=
EXTT18=
EXTT19=
PLAYORDER=
